<svg xmlns="http://www.w3.org/2000/svg" viewBox="0 0 410 404" aria-hidden="true">
  <path fill="#41D1FF" d="M399.641 59.525 215.643 388.545a15 15 0 0 1-26.182.179L10.343 59.547A15 15 0 0 1 26.87 37.657l184.285 32.978a15 15 0 0 0 5.302 0L383.09 37.64a15 15 0 0 1 16.55 21.885Z"/>
  <path fill="#BD34FE" d="M292.965.793 156.573 27.51a7.5 7.5 0 0 0-6.003 5.875L119.533 189.62a7.5 7.5 0 0 0 9.192 8.86l37.96-9.11a7.5 7.5 0 0 1 9.1 9.253l-11.275 55.203a7.5 7.5 0 0 0 11.284 7.895l23.457-14.08a7.5 7.5 0 0 1 10.27 2.03l42.733 84.619a7.5 7.5 0 0 0 13.627-1.445L405.034 51.98A7.5 7.5 0 0 0 396.75 43.37l-91.916 17.736a7.5 7.5 0 0 1-8.537-9.354l30.014-44.64A7.5 7.5 0 0 0 292.965.793Z"/>
</svg>
